<?xml version="1.0" encoding="UTF-8"?>
<!DOCTYPE svg PUBLIC "-//W3C//DTD SVG 1.1//EN" "http://www.w3.org/Graphics/SVG/1.1/DTD/svg11.dtd">
<!-- Creator: CorelDRAW -->
<svg xmlns="http://www.w3.org/2000/svg" xml:space="preserve" width="256.591mm" height="66.707mm" version="1.1" style="shape-rendering:geometricPrecision; text-rendering:geometricPrecision; image-rendering:optimizeQuality; fill-rule:evenodd; clip-rule:evenodd"
viewBox="0 0 25659.14 6670.7"
 xmlns:xlink="http://www.w3.org/1999/xlink"
 xmlns:xodm="http://www.corel.com/coreldraw/odm/2003">
 <defs>
  <style type="text/css">
   <![CDATA[
    .fil2 {fill:#000ECC}
    .fil3 {fill:#D72833}
    .fil0 {fill:#000ECC;fill-rule:nonzero}
    .fil1 {fill:#D72833;fill-rule:nonzero}
   ]]>
  </style>
 </defs>
 <g id="Слой_x0020_1">
  <metadata id="CorelCorpID_0Corel-Layer"/>
  <g id="_2084614696480">
   <g id="_2191133267024">
    <g>
     <path class="fil0" d="M6928.99 2859.73c-170.49,0 -309.27,-53.94 -416.32,-161.82 -107.06,-107.88 -160.58,-241.65 -160.58,-401.3 0,-159.65 53.52,-293.43 160.58,-401.3 107.05,-107.88 245.83,-161.82 416.32,-161.82 170.49,0 309.27,50.7 416.32,152.11 107.06,101.39 160.58,231.94 160.58,391.6 0,168.29 -52.53,307.46 -157.61,417.49 -105.06,110.03 -244.83,165.05 -419.28,165.05l-0.01 -0.01z"/>
     <path class="fil0" d="M6465.09 6622.88l0 -3482.37 927.8 0 0 3482.37 -927.8 0zm2557.39 -712.01l23.79 -1229.84 1492.8 -1540.53 1106.22 0 -1433.33 1585.83 -481.73 427.2 -707.75 757.32 0 0.02zm-767.22 712.01l0 -4802.82 927.8 0 0 4802.82 -927.8 0zm2384.91 0l-1082.43 -1462.85 582.87 -783.21 1623.63 2246.06 -1124.07 0zm2991.55 51.78c-364.78,0 -684.95,-77.67 -960.51,-233.02 -275.56,-155.35 -488.68,-367.86 -639.34,-637.57 -150.66,-269.71 -226,-577.16 -226,-922.37 0,-349.53 74.34,-659.14 223.02,-928.85 148.68,-269.71 351.88,-481.14 609.6,-634.34 257.72,-153.18 549.14,-229.8 874.27,-229.8 313.24,0 595.73,72.28 847.51,216.84 251.77,144.57 451.01,351.69 597.71,621.39 146.71,269.71 220.06,592.26 220.06,967.67 0,38.84 -1.98,83.07 -5.95,132.69 -3.96,49.63 -7.93,96.02 -11.89,139.17l-2599.02 0 0 -589.02 2111.33 0 -356.85 174.76c0,-181.24 -33.7,-338.73 -101.11,-472.51 -67.39,-133.77 -160.58,-238.41 -279.53,-313.93 -118.94,-75.52 -257.72,-113.27 -416.3,-113.27 -158.59,0 -298.36,37.76 -419.3,113.27 -120.93,75.51 -215.1,181.23 -282.49,317.16 -67.4,135.93 -101.11,296.68 -101.11,482.23l0 155.35c0,189.87 38.64,357.08 115.97,501.65 77.31,144.55 186.36,254.59 327.11,330.12 140.75,75.51 306.29,113.27 496.61,113.27 170.49,0 320.15,-28.06 449.03,-84.14 128.86,-56.1 246.82,-140.26 353.88,-252.44l493.65 582.55c-146.71,181.24 -331.07,320.4 -553.11,417.49 -222.03,97.1 -477.78,145.64 -767.23,145.64l-0.01 0.01z"/>
    </g>
    <path class="fil1" d="M17687.86 6674.66c-281.51,0 -523.36,-64.73 -725.58,-194.18 -202.21,-129.46 -356.85,-326.88 -463.9,-592.26 -107.06,-265.38 -160.58,-600.9 -160.58,-1006.52 0,-409.95 56.5,-746.54 169.5,-1009.76 113.01,-263.24 270.6,-459.57 472.81,-589.02 202.21,-129.46 438.13,-194.19 707.74,-194.19 301.34,0 571.94,73.36 811.83,220.08 239.89,146.71 430.19,353.84 570.95,621.39 140.75,267.55 211.13,584.69 211.13,951.5 0,362.47 -70.37,677.48 -211.13,945.03 -140.75,267.55 -331.07,475.76 -570.95,624.62 -239.89,148.87 -510.49,223.31 -811.83,223.31l0.01 0zm-1891.29 -51.78l0 -4802.82 927.8 0 0 2025.99 -59.48 1029.17 17.84 1035.65 0 712.01 -886.16 0zm1730.71 -776.74c154.63,0 292.4,-38.84 413.34,-116.51 120.93,-77.67 218.07,-188.79 291.42,-333.35 73.35,-144.55 110.03,-316.07 110.03,-514.58 0,-202.81 -36.68,-375.44 -110.03,-517.83 -73.35,-142.4 -170.49,-252.44 -291.42,-330.12 -120.93,-77.67 -258.71,-116.51 -413.34,-116.51 -154.64,0 -293.41,38.84 -416.33,116.51 -122.92,77.67 -220.05,187.71 -291.42,330.12 -71.37,142.4 -107.06,315.01 -107.06,517.83 0,198.5 35.69,370.03 107.06,514.58 71.37,144.57 168.5,255.68 291.42,333.35 122.92,77.69 261.69,116.51 416.33,116.51zm3960.96 828.52c-364.77,0 -684.94,-77.67 -960.51,-233.02 -275.55,-155.35 -488.68,-367.86 -639.34,-637.57 -150.67,-269.71 -226,-577.16 -226,-922.37 0,-349.53 74.34,-659.14 223.02,-928.85 148.7,-269.71 351.89,-481.14 609.6,-634.34 257.72,-153.18 549.14,-229.8 874.27,-229.8 313.24,0 595.74,72.28 847.52,216.84 251.77,144.57 451,351.69 597.71,621.39 146.71,269.71 220.06,592.26 220.06,967.67 0,38.84 -1.99,83.07 -5.96,132.69 -3.96,49.63 -7.93,96.02 -11.89,139.17l-2599.02 0 0 -589.02 2111.33 0 -356.84 174.76c0,-181.24 -33.71,-338.73 -101.11,-472.51 -67.4,-133.77 -160.58,-238.41 -279.53,-313.93 -118.94,-75.52 -257.72,-113.27 -416.3,-113.27 -158.59,0 -298.36,37.76 -419.3,113.27 -120.93,75.51 -215.1,181.23 -282.49,317.16 -67.4,135.93 -101.11,296.68 -101.11,482.23l0 155.35c0,189.87 38.66,357.08 115.98,501.65 77.31,144.55 186.36,254.59 327.1,330.12 140.75,75.51 306.3,113.27 496.61,113.27 170.49,0 320.17,-28.06 449.04,-84.14 128.85,-56.1 246.82,-140.26 353.88,-252.44l493.63 582.55c-146.7,181.24 -331.07,320.4 -553.11,417.49 -222.03,97.1 -477.78,145.64 -767.23,145.64l-0.01 0.01zm2164.88 -51.78l0 -3482.37 886.16 0 0 983.88 -124.9 -284.8c95.15,-245.97 247.81,-432.6 457.95,-559.9 210.14,-127.3 465.88,-190.95 767.23,-190.95l0 932.09c-39.65,-4.31 -75.33,-7.54 -107.05,-9.71 -31.73,-2.16 -65.42,-3.24 -101.11,-3.24 -253.76,0 -458.95,78.75 -615.56,236.27 -156.62,157.49 -234.92,402.39 -234.92,734.66l0 1644.09 -927.8 0 0 -0.02z"/>
   </g>
   <g>
    <path class="fil0" d="M2131.81 5270.6l0 -256.25 590.1 -622.32c46.62,-47.19 80.86,-89.49 102.72,-126.91 21.85,-37.42 36.79,-71.59 44.8,-102.49 8.02,-30.91 12.02,-59.39 12.02,-85.41 0,-68.34 -20.75,-120.81 -62.29,-157.42 -41.52,-36.6 -102.37,-54.91 -182.49,-54.91 -64.1,0 -123.48,13.84 -178.12,41.5 -54.64,27.66 -100.9,70.78 -138.79,129.35l-257.9 -185.49c58.27,-97.62 139.89,-174.9 244.78,-231.84 104.91,-56.94 225.84,-85.42 362.8,-85.42 113.64,0 213.09,20.74 298.33,62.23 85.24,41.5 151.53,99.65 198.87,174.49 47.37,74.85 71.04,164.34 71.04,268.47 0,55.32 -6.19,110.23 -18.58,164.73 -12.37,54.5 -37.14,111.85 -74.3,172.05 -37.16,60.2 -91.45,127.72 -162.83,202.56l-489.55 514.94 -67.76 -143.98 863.29 0 0 322.14 -1156.15 0 0.01 -0.02zm1538.62 0l0 -1561.91 152.98 170.84 -458.96 0 0 -208.56 660.04 -108.72 0 1708.34 -354.05 0 -0.01 0.01z"/>
    <path class="fil2" d="M3035.43 1445.29l-2070.94 1705.46 0 2873.7c0,0 243.66,598.43 639.58,598.15 395.91,-0.28 3167.26,0.28 3167.26,0.28 0,0 563.39,-152.57 593.88,-594.14 30.49,-441.57 0,-2588.65 0,-2588.65l-2329.77 -1994.79 -0.01 -0.01zm-871.78 1553.18l2015.97 0c220.31,0 400.56,180.26 400.56,400.56l0 1985.49c0,220.31 -180.26,400.56 -400.56,400.56l-2015.97 0c-220.35,0 -400.56,-180.26 -400.56,-400.56l0 -1985.49c0,-220.31 180.2,-400.56 400.56,-400.56z"/>
   </g>
   <polygon class="fil3" points="3034.85,3.96 -19.58,2439.94 434.82,3020.52 3034.85,950.6 5606.7,3092.03 6105.94,2475.22 "/>
  </g>
 </g>
</svg>
