<?xml version="1.0" encoding="UTF-8"?>
<!DOCTYPE svg PUBLIC "-//W3C//DTD SVG 1.1//EN" "http://www.w3.org/Graphics/SVG/1.1/DTD/svg11.dtd">
<!-- Creator: CorelDRAW -->
<svg xmlns="http://www.w3.org/2000/svg" xml:space="preserve" width="256.592mm" height="66.707mm" version="1.1" style="shape-rendering:geometricPrecision; text-rendering:geometricPrecision; image-rendering:optimizeQuality; fill-rule:evenodd; clip-rule:evenodd"
viewBox="0 0 20065.43 5216.48"
 xmlns:xlink="http://www.w3.org/1999/xlink"
 xmlns:xodm="http://www.corel.com/coreldraw/odm/2003">
 <defs>
  <style type="text/css">
   <![CDATA[
    .fil2 {fill:#32BCF6}
    .fil3 {fill:#D7277B}
    .fil0 {fill:#32BCF6;fill-rule:nonzero}
    .fil1 {fill:#D7277B;fill-rule:nonzero}
   ]]>
  </style>
 </defs>
 <g id="Слой_x0020_1">
  <metadata id="CorelCorpID_0Corel-Layer"/>
  <g id="_2191133267024">
   <path class="fil0" d="M5433.77 2233.21c-133.32,0 -241.85,-42.18 -325.56,-126.54 -83.72,-84.36 -125.57,-188.97 -125.57,-313.82 0,-124.85 41.85,-229.46 125.57,-313.82 83.71,-84.36 192.24,-126.54 325.56,-126.54 133.32,0 241.85,39.65 325.56,118.95 83.72,79.29 125.57,181.38 125.57,306.23 0,131.6 -41.08,240.43 -123.25,326.48 -82.16,86.04 -191.46,129.07 -327.88,129.07z"/>
   <path class="fil0" d="M5071 5175.99l0 -2723.21 725.54 0 0 2723.21 -725.54 0zm1999.88 -556.79l18.6 -961.73 1167.37 -1204.69 865.06 0 -1120.86 1240.12 -376.71 334.07 -553.46 592.22zm-599.97 556.79l0 -3755.8 725.54 0 0 3755.8 -725.54 0zm1865 0l-846.46 -1143.95 455.8 -612.47 1269.68 1756.42 -879.02 0zm2339.4 40.49c-285.26,0 -535.63,-60.74 -751.12,-182.22 -215.49,-121.48 -382.15,-287.67 -499.96,-498.58 -117.82,-210.91 -176.74,-451.34 -176.74,-721.29 0,-273.33 58.13,-515.45 174.41,-726.36 116.27,-210.91 275.17,-376.25 476.71,-496.05 201.54,-119.79 429.43,-179.7 683.68,-179.7 244.95,0 465.86,56.52 662.75,169.57 196.88,113.05 352.69,275.02 467.41,485.93 114.73,210.91 172.09,463.15 172.09,756.72 0,30.37 -1.55,64.96 -4.65,103.76 -3.1,38.81 -6.2,75.09 -9.3,108.83l-2032.43 0 0 -460.61 1651.06 0 -279.06 136.66c0,-141.73 -26.35,-264.89 -79.07,-369.5 -52.7,-104.61 -125.57,-186.44 -218.59,-245.49 -93.01,-59.06 -201.54,-88.58 -325.55,-88.58 -124.02,0 -233.32,29.53 -327.89,88.58 -94.57,59.05 -168.21,141.72 -220.91,248.02 -52.71,106.3 -79.07,232 -79.07,377.1l0 121.48c0,148.48 30.22,279.24 90.69,392.29 60.46,113.04 145.73,199.09 255.8,258.15 110.07,59.05 239.52,88.58 388.35,88.58 133.32,0 250.36,-21.94 351.14,-65.8 100.77,-43.87 193.01,-109.68 276.73,-197.41l386.03 455.55c-114.73,141.73 -258.9,250.55 -432.53,326.48 -173.63,75.93 -373.62,113.89 -599.97,113.89z"/>
   <path class="fil1" d="M13847.2 5216.48c-220.14,0 -409.27,-50.62 -567.4,-151.85 -158.13,-101.24 -279.06,-255.62 -362.77,-463.15 -83.72,-207.53 -125.57,-469.9 -125.57,-787.1 0,-320.58 44.18,-583.79 132.55,-789.63 88.37,-205.85 211.61,-359.38 369.74,-460.61 158.13,-101.24 342.62,-151.86 553.45,-151.86 235.65,0 447.26,57.37 634.85,172.1 187.59,114.73 336.41,276.7 446.48,485.93 110.07,209.22 165.1,457.23 165.1,744.07 0,283.45 -55.03,529.79 -165.1,739.01 -110.07,209.22 -258.9,372.04 -446.48,488.45 -187.59,116.42 -399.2,174.63 -634.85,174.63zm-1478.98 -40.49l0 -3755.8 725.54 0 0 1584.32 -46.51 804.81 13.95 809.88 0 556.79 -692.98 0zm1353.41 -607.41c120.92,0 228.66,-30.37 323.23,-91.11 94.57,-60.74 170.53,-147.63 227.89,-260.68 57.36,-113.04 86.04,-247.17 86.04,-402.4 0,-158.6 -28.68,-293.59 -86.04,-404.94 -57.36,-111.36 -133.32,-197.41 -227.89,-258.15 -94.57,-60.74 -202.31,-91.11 -323.23,-91.11 -120.93,0 -229.45,30.37 -325.57,91.11 -96.12,60.74 -172.08,146.79 -227.89,258.15 -55.81,111.36 -83.72,246.34 -83.72,404.94 0,155.23 27.91,289.36 83.72,402.4 55.81,113.05 131.77,199.94 227.89,260.68 96.12,60.75 204.64,91.11 325.57,91.11zm3097.47 647.9c-285.25,0 -535.62,-60.74 -751.12,-182.22 -215.48,-121.48 -382.15,-287.67 -499.96,-498.58 -117.82,-210.91 -176.73,-451.34 -176.73,-721.29 0,-273.33 58.13,-515.45 174.4,-726.36 116.28,-210.91 275.18,-376.25 476.71,-496.05 201.54,-119.79 429.43,-179.7 683.68,-179.7 244.95,0 465.87,56.52 662.76,169.57 196.88,113.05 352.68,275.02 467.41,485.93 114.73,210.91 172.09,463.15 172.09,756.72 0,30.37 -1.56,64.96 -4.66,103.76 -3.1,38.81 -6.2,75.09 -9.3,108.83l-2032.43 0 0 -460.61 1651.06 0 -279.05 136.66c0,-141.73 -26.36,-264.89 -79.07,-369.5 -52.71,-104.61 -125.57,-186.44 -218.59,-245.49 -93.01,-59.06 -201.54,-88.58 -325.55,-88.58 -124.02,0 -233.32,29.53 -327.89,88.58 -94.57,59.05 -168.21,141.72 -220.91,248.02 -52.71,106.3 -79.07,232 -79.07,377.1l0 121.48c0,148.48 30.23,279.24 90.7,392.29 60.46,113.04 145.73,199.09 255.79,258.15 110.07,59.05 239.53,88.58 388.35,88.58 133.32,0 250.37,-21.94 351.15,-65.8 100.76,-43.87 193.01,-109.68 276.73,-197.41l386.02 455.55c-114.72,141.73 -258.9,250.55 -432.53,326.48 -173.63,75.93 -373.62,113.89 -599.97,113.89zm1692.93 -40.49l0 -2723.21 692.98 0 0 769.39 -97.67 -222.71c74.41,-192.35 193.79,-338.29 358.12,-437.84 164.33,-99.55 364.32,-149.32 599.97,-149.32l0 728.89c-31.01,-3.37 -58.91,-5.9 -83.71,-7.59 -24.81,-1.69 -51.16,-2.53 -79.07,-2.53 -198.44,0 -358.9,61.58 -481.37,184.76 -122.48,123.16 -183.71,314.67 -183.71,574.5l0 1285.68 -725.54 0z"/>
  </g>
  <path class="fil0" d="M1682.38 4118.51l0 -200.39 461.46 -486.65c36.46,-36.9 63.23,-69.98 80.33,-99.24 17.09,-29.26 28.77,-55.98 35.03,-80.15 6.27,-24.17 9.4,-46.44 9.4,-66.79 0,-53.44 -16.23,-94.47 -48.71,-123.1 -32.47,-28.62 -80.05,-42.94 -142.71,-42.94 -50.13,0 -96.56,10.82 -139.29,32.45 -42.73,21.63 -78.9,55.35 -108.53,101.15l-201.68 -145.05c45.57,-76.34 109.39,-136.77 191.42,-181.3 82.04,-44.53 176.61,-66.8 283.71,-66.8 88.87,0 166.64,16.22 233.29,48.66 66.66,32.45 118.5,77.93 155.52,136.45 37.04,58.53 55.55,128.51 55.55,209.94 0,43.26 -4.84,86.2 -14.53,128.82 -9.67,42.62 -29.04,87.47 -58.1,134.54 -29.06,47.08 -71.51,99.88 -127.33,158.4l-382.83 402.68 -52.99 -112.59 675.09 0 0 251.91 -904.11 0zm1203.2 0l0 -1221.41 119.63 133.6 -358.91 0 0 -163.09 516.15 -85.02 0 1335.92 -276.87 0z"/>
  <path class="fil2" d="M2389.01 1127.12l-1619.47 1333.67 0 2247.23c0,0 190.54,467.97 500.15,467.75 309.6,-0.22 2476.79,0.22 2476.79,0.22 0,0 440.57,-119.31 464.41,-464.62 23.84,-345.31 0,-2024.32 0,-2024.32l-1821.88 -1559.92zm-681.73 1214.58l1576.49 0c172.28,0 313.24,140.96 313.24,313.24l0 1552.65c0,172.28 -140.96,313.24 -313.24,313.24l-1576.49 0c-172.31,0 -313.24,-140.96 -313.24,-313.24l0 -1552.65c0,-172.28 140.92,-313.24 313.24,-313.24z"/>
  <polygon class="fil3" points="2388.56,0 -0,1904.93 355.34,2358.95 2388.56,740.27 4399.74,2414.87 4790.15,1932.52 "/>
 </g>
</svg>
